<?xml version="1.0" encoding="UTF-8"?>
<svg xmlns="http://www.w3.org/2000/svg" xmlns:xlink="http://www.w3.org/1999/xlink" width="375pt" height="374.999991pt" viewBox="0 0 375 374.999991" version="1.2">
<g id="surface1">
<path style=" stroke:none;fill-rule:nonzero;fill:rgb(100%,100%,100%);fill-opacity:1;" d="M 112.320312 49.226562 L 318.980469 49.226562 L 318.980469 374.9375 L 112.320312 374.9375 Z M 112.320312 49.226562 "/>
<path style=" stroke:none;fill-rule:nonzero;fill:rgb(27.839661%,34.899902%,57.649231%);fill-opacity:1;" d="M 324.464844 0 L 50.535156 0 C 22.625 0 0 22.625 0 50.53125 L 0 324.464844 C 0 352.375 22.625 375 50.535156 375 L 185.636719 375 L 185.867188 240.992188 L 151.050781 240.992188 C 146.527344 240.992188 142.855469 237.335938 142.839844 232.8125 L 142.671875 189.617188 C 142.652344 185.066406 146.335938 181.371094 150.886719 181.371094 L 185.636719 181.371094 L 185.636719 139.632812 C 185.636719 91.195312 215.21875 64.824219 258.425781 64.824219 L 293.882812 64.824219 C 298.417969 64.824219 302.097656 68.5 302.097656 73.039062 L 302.097656 109.460938 C 302.097656 113.996094 298.421875 117.671875 293.886719 117.675781 L 272.128906 117.683594 C 248.628906 117.683594 244.078125 128.851562 244.078125 145.238281 L 244.078125 181.371094 L 295.710938 181.371094 C 300.632812 181.371094 304.449219 185.667969 303.871094 190.554688 L 298.75 233.746094 C 298.261719 237.882812 294.753906 240.996094 290.59375 240.996094 L 244.308594 240.996094 L 244.078125 375 L 324.46875 375 C 352.375 375 375 352.375 375 324.46875 L 375 50.53125 C 375 22.625 352.375 0 324.464844 0 Z M 324.464844 0 "/>
</g>
</svg>
